<mxfile host="app.diagrams.net" modified="2023-10-29T18:07:15.104Z" agent="Mozilla/5.0 (Windows NT 10.0; Win64; x64) AppleWebKit/537.36 (KHTML, like Gecko) Chrome/118.0.0.0 Safari/537.36" etag="blqPtE1FSGQpd_srRcQd" version="22.0.8" type="device">
  <diagram name="Page-1" id="qkXUQmDUu40Litg8JH-Y">
    <mxGraphModel dx="874" dy="469" grid="0" gridSize="10" guides="1" tooltips="1" connect="1" arrows="1" fold="1" page="1" pageScale="1" pageWidth="827" pageHeight="1169" math="0" shadow="0">
      <root>
        <mxCell id="0" />
        <mxCell id="1" parent="0" />
        <mxCell id="TVKGhcR1H5X7oImXkqEj-3" value="&lt;span style=&quot;font-size: 16px;&quot;&gt;Загрузка отчетов&lt;/span&gt;" style="ellipse;whiteSpace=wrap;html=1;" vertex="1" parent="1">
          <mxGeometry x="230" y="535" width="120" height="80" as="geometry" />
        </mxCell>
        <mxCell id="TVKGhcR1H5X7oImXkqEj-4" value="&lt;span style=&quot;font-size: 16px;&quot;&gt;Сортировка отчетов&lt;/span&gt;" style="ellipse;whiteSpace=wrap;html=1;" vertex="1" parent="1">
          <mxGeometry x="307" y="398" width="120" height="80" as="geometry" />
        </mxCell>
        <mxCell id="TVKGhcR1H5X7oImXkqEj-5" value="&lt;span style=&quot;font-size: 16px;&quot;&gt;Отображение отчетов&lt;/span&gt;" style="ellipse;whiteSpace=wrap;html=1;" vertex="1" parent="1">
          <mxGeometry x="474" y="391" width="120" height="80" as="geometry" />
        </mxCell>
        <mxCell id="TVKGhcR1H5X7oImXkqEj-6" value="&lt;span style=&quot;font-size: 16px;&quot;&gt;Редактирование отчетов&lt;/span&gt;" style="ellipse;whiteSpace=wrap;html=1;" vertex="1" parent="1">
          <mxGeometry x="567" y="504" width="131" height="86" as="geometry" />
        </mxCell>
        <mxCell id="TVKGhcR1H5X7oImXkqEj-7" value="&lt;span style=&quot;font-size: 16px;&quot;&gt;Сохранение отчетов&lt;/span&gt;" style="ellipse;whiteSpace=wrap;html=1;" vertex="1" parent="1">
          <mxGeometry x="422" y="617" width="131" height="86" as="geometry" />
        </mxCell>
        <mxCell id="TVKGhcR1H5X7oImXkqEj-14" value="" style="rounded=0;whiteSpace=wrap;html=1;" vertex="1" parent="1">
          <mxGeometry x="340" y="263" width="12" height="17" as="geometry" />
        </mxCell>
        <mxCell id="TVKGhcR1H5X7oImXkqEj-15" value="" style="endArrow=none;html=1;rounded=0;" edge="1" parent="1">
          <mxGeometry width="50" height="50" relative="1" as="geometry">
            <mxPoint x="342" y="266" as="sourcePoint" />
            <mxPoint x="350" y="266" as="targetPoint" />
          </mxGeometry>
        </mxCell>
        <mxCell id="TVKGhcR1H5X7oImXkqEj-16" value="" style="endArrow=none;html=1;rounded=0;" edge="1" parent="1">
          <mxGeometry width="50" height="50" relative="1" as="geometry">
            <mxPoint x="342" y="268" as="sourcePoint" />
            <mxPoint x="350" y="268" as="targetPoint" />
          </mxGeometry>
        </mxCell>
        <mxCell id="TVKGhcR1H5X7oImXkqEj-17" value="" style="endArrow=none;html=1;rounded=0;" edge="1" parent="1">
          <mxGeometry width="50" height="50" relative="1" as="geometry">
            <mxPoint x="342" y="270" as="sourcePoint" />
            <mxPoint x="350" y="270" as="targetPoint" />
          </mxGeometry>
        </mxCell>
        <mxCell id="TVKGhcR1H5X7oImXkqEj-18" value="" style="endArrow=none;html=1;rounded=0;" edge="1" parent="1">
          <mxGeometry width="50" height="50" relative="1" as="geometry">
            <mxPoint x="342" y="272" as="sourcePoint" />
            <mxPoint x="350" y="272" as="targetPoint" />
          </mxGeometry>
        </mxCell>
        <mxCell id="TVKGhcR1H5X7oImXkqEj-19" value="" style="endArrow=none;html=1;rounded=0;" edge="1" parent="1">
          <mxGeometry width="50" height="50" relative="1" as="geometry">
            <mxPoint x="342" y="274" as="sourcePoint" />
            <mxPoint x="350" y="274" as="targetPoint" />
          </mxGeometry>
        </mxCell>
        <mxCell id="TVKGhcR1H5X7oImXkqEj-20" value="" style="rounded=0;whiteSpace=wrap;html=1;" vertex="1" parent="1">
          <mxGeometry x="464" y="386" width="12" height="17" as="geometry" />
        </mxCell>
        <mxCell id="TVKGhcR1H5X7oImXkqEj-21" value="" style="endArrow=none;html=1;rounded=0;" edge="1" parent="1">
          <mxGeometry width="50" height="50" relative="1" as="geometry">
            <mxPoint x="466" y="389" as="sourcePoint" />
            <mxPoint x="468" y="389" as="targetPoint" />
          </mxGeometry>
        </mxCell>
        <mxCell id="TVKGhcR1H5X7oImXkqEj-22" value="" style="endArrow=none;html=1;rounded=0;" edge="1" parent="1">
          <mxGeometry width="50" height="50" relative="1" as="geometry">
            <mxPoint x="466" y="391" as="sourcePoint" />
            <mxPoint x="470" y="391" as="targetPoint" />
          </mxGeometry>
        </mxCell>
        <mxCell id="TVKGhcR1H5X7oImXkqEj-23" value="" style="endArrow=none;html=1;rounded=0;" edge="1" parent="1">
          <mxGeometry width="50" height="50" relative="1" as="geometry">
            <mxPoint x="466" y="393" as="sourcePoint" />
            <mxPoint x="471" y="393" as="targetPoint" />
          </mxGeometry>
        </mxCell>
        <mxCell id="TVKGhcR1H5X7oImXkqEj-24" value="" style="endArrow=none;html=1;rounded=0;" edge="1" parent="1">
          <mxGeometry width="50" height="50" relative="1" as="geometry">
            <mxPoint x="466" y="395" as="sourcePoint" />
            <mxPoint x="473" y="395" as="targetPoint" />
          </mxGeometry>
        </mxCell>
        <mxCell id="TVKGhcR1H5X7oImXkqEj-25" value="" style="endArrow=none;html=1;rounded=0;" edge="1" parent="1">
          <mxGeometry width="50" height="50" relative="1" as="geometry">
            <mxPoint x="466" y="397" as="sourcePoint" />
            <mxPoint x="474" y="397" as="targetPoint" />
          </mxGeometry>
        </mxCell>
        <mxCell id="TVKGhcR1H5X7oImXkqEj-26" value="" style="rounded=0;whiteSpace=wrap;html=1;" vertex="1" parent="1">
          <mxGeometry x="427" y="386" width="12" height="17" as="geometry" />
        </mxCell>
        <mxCell id="TVKGhcR1H5X7oImXkqEj-27" value="" style="endArrow=none;html=1;rounded=0;" edge="1" parent="1">
          <mxGeometry width="50" height="50" relative="1" as="geometry">
            <mxPoint x="429" y="397" as="sourcePoint" />
            <mxPoint x="431" y="397" as="targetPoint" />
          </mxGeometry>
        </mxCell>
        <mxCell id="TVKGhcR1H5X7oImXkqEj-28" value="" style="endArrow=none;html=1;rounded=0;" edge="1" parent="1">
          <mxGeometry width="50" height="50" relative="1" as="geometry">
            <mxPoint x="429" y="391" as="sourcePoint" />
            <mxPoint x="433" y="391" as="targetPoint" />
          </mxGeometry>
        </mxCell>
        <mxCell id="TVKGhcR1H5X7oImXkqEj-29" value="" style="endArrow=none;html=1;rounded=0;" edge="1" parent="1">
          <mxGeometry width="50" height="50" relative="1" as="geometry">
            <mxPoint x="429" y="393" as="sourcePoint" />
            <mxPoint x="434" y="393" as="targetPoint" />
          </mxGeometry>
        </mxCell>
        <mxCell id="TVKGhcR1H5X7oImXkqEj-30" value="" style="endArrow=none;html=1;rounded=0;" edge="1" parent="1">
          <mxGeometry width="50" height="50" relative="1" as="geometry">
            <mxPoint x="429" y="389" as="sourcePoint" />
            <mxPoint x="436" y="389" as="targetPoint" />
          </mxGeometry>
        </mxCell>
        <mxCell id="TVKGhcR1H5X7oImXkqEj-31" value="" style="endArrow=none;html=1;rounded=0;" edge="1" parent="1">
          <mxGeometry width="50" height="50" relative="1" as="geometry">
            <mxPoint x="429" y="395" as="sourcePoint" />
            <mxPoint x="437" y="395" as="targetPoint" />
          </mxGeometry>
        </mxCell>
        <mxCell id="TVKGhcR1H5X7oImXkqEj-32" value="" style="rounded=0;whiteSpace=wrap;html=1;" vertex="1" parent="1">
          <mxGeometry x="343" y="260" width="12" height="17" as="geometry" />
        </mxCell>
        <mxCell id="TVKGhcR1H5X7oImXkqEj-33" value="" style="endArrow=none;html=1;rounded=0;" edge="1" parent="1">
          <mxGeometry width="50" height="50" relative="1" as="geometry">
            <mxPoint x="345" y="263" as="sourcePoint" />
            <mxPoint x="353" y="263" as="targetPoint" />
          </mxGeometry>
        </mxCell>
        <mxCell id="TVKGhcR1H5X7oImXkqEj-34" value="" style="endArrow=none;html=1;rounded=0;" edge="1" parent="1">
          <mxGeometry width="50" height="50" relative="1" as="geometry">
            <mxPoint x="345" y="265" as="sourcePoint" />
            <mxPoint x="353" y="265" as="targetPoint" />
          </mxGeometry>
        </mxCell>
        <mxCell id="TVKGhcR1H5X7oImXkqEj-35" value="" style="endArrow=none;html=1;rounded=0;" edge="1" parent="1">
          <mxGeometry width="50" height="50" relative="1" as="geometry">
            <mxPoint x="345" y="267" as="sourcePoint" />
            <mxPoint x="353" y="267" as="targetPoint" />
          </mxGeometry>
        </mxCell>
        <mxCell id="TVKGhcR1H5X7oImXkqEj-36" value="" style="endArrow=none;html=1;rounded=0;" edge="1" parent="1">
          <mxGeometry width="50" height="50" relative="1" as="geometry">
            <mxPoint x="345" y="269" as="sourcePoint" />
            <mxPoint x="353" y="269" as="targetPoint" />
          </mxGeometry>
        </mxCell>
        <mxCell id="TVKGhcR1H5X7oImXkqEj-37" value="" style="endArrow=none;html=1;rounded=0;" edge="1" parent="1">
          <mxGeometry width="50" height="50" relative="1" as="geometry">
            <mxPoint x="345" y="271" as="sourcePoint" />
            <mxPoint x="353" y="271" as="targetPoint" />
          </mxGeometry>
        </mxCell>
        <mxCell id="TVKGhcR1H5X7oImXkqEj-38" value="" style="group" vertex="1" connectable="0" parent="1">
          <mxGeometry x="622" y="440" width="12" height="17" as="geometry" />
        </mxCell>
        <mxCell id="TVKGhcR1H5X7oImXkqEj-8" value="" style="rounded=0;whiteSpace=wrap;html=1;" vertex="1" parent="TVKGhcR1H5X7oImXkqEj-38">
          <mxGeometry width="12" height="17" as="geometry" />
        </mxCell>
        <mxCell id="TVKGhcR1H5X7oImXkqEj-9" value="" style="endArrow=none;html=1;rounded=0;" edge="1" parent="TVKGhcR1H5X7oImXkqEj-38">
          <mxGeometry width="50" height="50" relative="1" as="geometry">
            <mxPoint x="2" y="3" as="sourcePoint" />
            <mxPoint x="10" y="3" as="targetPoint" />
          </mxGeometry>
        </mxCell>
        <mxCell id="TVKGhcR1H5X7oImXkqEj-10" value="" style="endArrow=none;html=1;rounded=0;" edge="1" parent="TVKGhcR1H5X7oImXkqEj-38">
          <mxGeometry width="50" height="50" relative="1" as="geometry">
            <mxPoint x="2" y="5" as="sourcePoint" />
            <mxPoint x="10" y="5" as="targetPoint" />
          </mxGeometry>
        </mxCell>
        <mxCell id="TVKGhcR1H5X7oImXkqEj-11" value="" style="endArrow=none;html=1;rounded=0;" edge="1" parent="TVKGhcR1H5X7oImXkqEj-38">
          <mxGeometry width="50" height="50" relative="1" as="geometry">
            <mxPoint x="2" y="7" as="sourcePoint" />
            <mxPoint x="10" y="7" as="targetPoint" />
          </mxGeometry>
        </mxCell>
        <mxCell id="TVKGhcR1H5X7oImXkqEj-12" value="" style="endArrow=none;html=1;rounded=0;" edge="1" parent="TVKGhcR1H5X7oImXkqEj-38">
          <mxGeometry width="50" height="50" relative="1" as="geometry">
            <mxPoint x="2" y="9" as="sourcePoint" />
            <mxPoint x="10" y="9" as="targetPoint" />
          </mxGeometry>
        </mxCell>
        <mxCell id="TVKGhcR1H5X7oImXkqEj-13" value="" style="endArrow=none;html=1;rounded=0;" edge="1" parent="TVKGhcR1H5X7oImXkqEj-38">
          <mxGeometry width="50" height="50" relative="1" as="geometry">
            <mxPoint x="2" y="11" as="sourcePoint" />
            <mxPoint x="10" y="11" as="targetPoint" />
          </mxGeometry>
        </mxCell>
        <mxCell id="TVKGhcR1H5X7oImXkqEj-39" value="" style="group" vertex="1" connectable="0" parent="1">
          <mxGeometry x="250" y="255" width="12" height="17" as="geometry" />
        </mxCell>
        <mxCell id="TVKGhcR1H5X7oImXkqEj-40" value="" style="rounded=0;whiteSpace=wrap;html=1;" vertex="1" parent="TVKGhcR1H5X7oImXkqEj-39">
          <mxGeometry width="12" height="17" as="geometry" />
        </mxCell>
        <mxCell id="TVKGhcR1H5X7oImXkqEj-41" value="" style="endArrow=none;html=1;rounded=0;" edge="1" parent="TVKGhcR1H5X7oImXkqEj-39">
          <mxGeometry width="50" height="50" relative="1" as="geometry">
            <mxPoint x="2" y="3" as="sourcePoint" />
            <mxPoint x="10" y="3" as="targetPoint" />
          </mxGeometry>
        </mxCell>
        <mxCell id="TVKGhcR1H5X7oImXkqEj-42" value="" style="endArrow=none;html=1;rounded=0;" edge="1" parent="TVKGhcR1H5X7oImXkqEj-39">
          <mxGeometry width="50" height="50" relative="1" as="geometry">
            <mxPoint x="2" y="5" as="sourcePoint" />
            <mxPoint x="10" y="5" as="targetPoint" />
          </mxGeometry>
        </mxCell>
        <mxCell id="TVKGhcR1H5X7oImXkqEj-43" value="" style="endArrow=none;html=1;rounded=0;" edge="1" parent="TVKGhcR1H5X7oImXkqEj-39">
          <mxGeometry width="50" height="50" relative="1" as="geometry">
            <mxPoint x="2" y="7" as="sourcePoint" />
            <mxPoint x="10" y="7" as="targetPoint" />
          </mxGeometry>
        </mxCell>
        <mxCell id="TVKGhcR1H5X7oImXkqEj-44" value="" style="endArrow=none;html=1;rounded=0;" edge="1" parent="TVKGhcR1H5X7oImXkqEj-39">
          <mxGeometry width="50" height="50" relative="1" as="geometry">
            <mxPoint x="2" y="9" as="sourcePoint" />
            <mxPoint x="10" y="9" as="targetPoint" />
          </mxGeometry>
        </mxCell>
        <mxCell id="TVKGhcR1H5X7oImXkqEj-45" value="" style="endArrow=none;html=1;rounded=0;" edge="1" parent="TVKGhcR1H5X7oImXkqEj-39">
          <mxGeometry width="50" height="50" relative="1" as="geometry">
            <mxPoint x="2" y="11" as="sourcePoint" />
            <mxPoint x="10" y="11" as="targetPoint" />
          </mxGeometry>
        </mxCell>
        <mxCell id="TVKGhcR1H5X7oImXkqEj-46" value="" style="rounded=0;whiteSpace=wrap;html=1;" vertex="1" parent="1">
          <mxGeometry x="288" y="484" width="12" height="17" as="geometry" />
        </mxCell>
        <mxCell id="TVKGhcR1H5X7oImXkqEj-47" value="" style="endArrow=none;html=1;rounded=0;" edge="1" parent="1">
          <mxGeometry width="50" height="50" relative="1" as="geometry">
            <mxPoint x="290" y="486" as="sourcePoint" />
            <mxPoint x="298" y="486" as="targetPoint" />
          </mxGeometry>
        </mxCell>
        <mxCell id="TVKGhcR1H5X7oImXkqEj-48" value="" style="endArrow=none;html=1;rounded=0;" edge="1" parent="1">
          <mxGeometry width="50" height="50" relative="1" as="geometry">
            <mxPoint x="290" y="488" as="sourcePoint" />
            <mxPoint x="298" y="488" as="targetPoint" />
          </mxGeometry>
        </mxCell>
        <mxCell id="TVKGhcR1H5X7oImXkqEj-49" value="" style="endArrow=none;html=1;rounded=0;" edge="1" parent="1">
          <mxGeometry width="50" height="50" relative="1" as="geometry">
            <mxPoint x="290" y="490" as="sourcePoint" />
            <mxPoint x="298" y="490" as="targetPoint" />
          </mxGeometry>
        </mxCell>
        <mxCell id="TVKGhcR1H5X7oImXkqEj-50" value="" style="endArrow=none;html=1;rounded=0;" edge="1" parent="1">
          <mxGeometry width="50" height="50" relative="1" as="geometry">
            <mxPoint x="290" y="492" as="sourcePoint" />
            <mxPoint x="298" y="492" as="targetPoint" />
          </mxGeometry>
        </mxCell>
        <mxCell id="TVKGhcR1H5X7oImXkqEj-51" value="" style="endArrow=none;html=1;rounded=0;" edge="1" parent="1">
          <mxGeometry width="50" height="50" relative="1" as="geometry">
            <mxPoint x="290" y="494" as="sourcePoint" />
            <mxPoint x="298" y="494" as="targetPoint" />
          </mxGeometry>
        </mxCell>
        <mxCell id="TVKGhcR1H5X7oImXkqEj-52" value="" style="rounded=0;whiteSpace=wrap;html=1;" vertex="1" parent="1">
          <mxGeometry x="291" y="480" width="12" height="17" as="geometry" />
        </mxCell>
        <mxCell id="TVKGhcR1H5X7oImXkqEj-53" value="" style="endArrow=none;html=1;rounded=0;" edge="1" parent="1">
          <mxGeometry width="50" height="50" relative="1" as="geometry">
            <mxPoint x="293" y="483" as="sourcePoint" />
            <mxPoint x="301" y="483" as="targetPoint" />
          </mxGeometry>
        </mxCell>
        <mxCell id="TVKGhcR1H5X7oImXkqEj-54" value="" style="endArrow=none;html=1;rounded=0;" edge="1" parent="1">
          <mxGeometry width="50" height="50" relative="1" as="geometry">
            <mxPoint x="293" y="485" as="sourcePoint" />
            <mxPoint x="301" y="485" as="targetPoint" />
          </mxGeometry>
        </mxCell>
        <mxCell id="TVKGhcR1H5X7oImXkqEj-55" value="" style="endArrow=none;html=1;rounded=0;" edge="1" parent="1">
          <mxGeometry width="50" height="50" relative="1" as="geometry">
            <mxPoint x="293" y="487" as="sourcePoint" />
            <mxPoint x="301" y="487" as="targetPoint" />
          </mxGeometry>
        </mxCell>
        <mxCell id="TVKGhcR1H5X7oImXkqEj-56" value="" style="endArrow=none;html=1;rounded=0;" edge="1" parent="1">
          <mxGeometry width="50" height="50" relative="1" as="geometry">
            <mxPoint x="293" y="489" as="sourcePoint" />
            <mxPoint x="301" y="489" as="targetPoint" />
          </mxGeometry>
        </mxCell>
        <mxCell id="TVKGhcR1H5X7oImXkqEj-57" value="" style="endArrow=none;html=1;rounded=0;" edge="1" parent="1">
          <mxGeometry width="50" height="50" relative="1" as="geometry">
            <mxPoint x="293" y="491" as="sourcePoint" />
            <mxPoint x="301" y="491" as="targetPoint" />
          </mxGeometry>
        </mxCell>
        <mxCell id="TVKGhcR1H5X7oImXkqEj-58" value="" style="endArrow=classic;html=1;rounded=0;" edge="1" parent="1">
          <mxGeometry width="50" height="50" relative="1" as="geometry">
            <mxPoint x="443" y="394" as="sourcePoint" />
            <mxPoint x="461" y="394" as="targetPoint" />
          </mxGeometry>
        </mxCell>
        <mxCell id="TVKGhcR1H5X7oImXkqEj-61" value="" style="endArrow=none;html=1;rounded=0;exitX=0.5;exitY=0;exitDx=0;exitDy=0;entryX=0;entryY=1;entryDx=0;entryDy=0;" edge="1" parent="1" source="TVKGhcR1H5X7oImXkqEj-3" target="TVKGhcR1H5X7oImXkqEj-4">
          <mxGeometry width="50" height="50" relative="1" as="geometry">
            <mxPoint x="331" y="535" as="sourcePoint" />
            <mxPoint x="381" y="485" as="targetPoint" />
          </mxGeometry>
        </mxCell>
        <mxCell id="TVKGhcR1H5X7oImXkqEj-62" value="" style="endArrow=none;html=1;rounded=0;entryX=0;entryY=0.5;entryDx=0;entryDy=0;exitX=1;exitY=0.5;exitDx=0;exitDy=0;" edge="1" parent="1" source="TVKGhcR1H5X7oImXkqEj-4" target="TVKGhcR1H5X7oImXkqEj-5">
          <mxGeometry width="50" height="50" relative="1" as="geometry">
            <mxPoint x="395" y="560" as="sourcePoint" />
            <mxPoint x="445" y="510" as="targetPoint" />
          </mxGeometry>
        </mxCell>
        <mxCell id="TVKGhcR1H5X7oImXkqEj-63" value="" style="endArrow=none;html=1;rounded=0;entryX=0.5;entryY=0;entryDx=0;entryDy=0;exitX=1;exitY=0.5;exitDx=0;exitDy=0;" edge="1" parent="1" source="TVKGhcR1H5X7oImXkqEj-5" target="TVKGhcR1H5X7oImXkqEj-6">
          <mxGeometry width="50" height="50" relative="1" as="geometry">
            <mxPoint x="405" y="570" as="sourcePoint" />
            <mxPoint x="455" y="520" as="targetPoint" />
          </mxGeometry>
        </mxCell>
        <mxCell id="TVKGhcR1H5X7oImXkqEj-64" value="" style="endArrow=none;html=1;rounded=0;exitX=0;exitY=0;exitDx=0;exitDy=0;entryX=1;entryY=1;entryDx=0;entryDy=0;" edge="1" parent="1" source="TVKGhcR1H5X7oImXkqEj-7" target="TVKGhcR1H5X7oImXkqEj-3">
          <mxGeometry width="50" height="50" relative="1" as="geometry">
            <mxPoint x="415" y="580" as="sourcePoint" />
            <mxPoint x="465" y="530" as="targetPoint" />
          </mxGeometry>
        </mxCell>
        <mxCell id="TVKGhcR1H5X7oImXkqEj-65" value="" style="endArrow=none;html=1;rounded=0;entryX=0.5;entryY=1;entryDx=0;entryDy=0;exitX=1;exitY=0;exitDx=0;exitDy=0;" edge="1" parent="1" source="TVKGhcR1H5X7oImXkqEj-7" target="TVKGhcR1H5X7oImXkqEj-6">
          <mxGeometry width="50" height="50" relative="1" as="geometry">
            <mxPoint x="425" y="590" as="sourcePoint" />
            <mxPoint x="475" y="540" as="targetPoint" />
          </mxGeometry>
        </mxCell>
        <mxCell id="TVKGhcR1H5X7oImXkqEj-66" value="" style="rounded=0;whiteSpace=wrap;html=1;" vertex="1" parent="1">
          <mxGeometry x="583" y="615" width="12" height="17" as="geometry" />
        </mxCell>
        <mxCell id="TVKGhcR1H5X7oImXkqEj-67" value="" style="endArrow=none;html=1;rounded=0;" edge="1" parent="1">
          <mxGeometry width="50" height="50" relative="1" as="geometry">
            <mxPoint x="585" y="618" as="sourcePoint" />
            <mxPoint x="593" y="618" as="targetPoint" />
          </mxGeometry>
        </mxCell>
        <mxCell id="TVKGhcR1H5X7oImXkqEj-68" value="" style="endArrow=none;html=1;rounded=0;" edge="1" parent="1">
          <mxGeometry width="50" height="50" relative="1" as="geometry">
            <mxPoint x="585" y="620" as="sourcePoint" />
            <mxPoint x="593" y="620" as="targetPoint" />
          </mxGeometry>
        </mxCell>
        <mxCell id="TVKGhcR1H5X7oImXkqEj-69" value="" style="endArrow=none;html=1;rounded=0;" edge="1" parent="1">
          <mxGeometry width="50" height="50" relative="1" as="geometry">
            <mxPoint x="585" y="622" as="sourcePoint" />
            <mxPoint x="593" y="622" as="targetPoint" />
          </mxGeometry>
        </mxCell>
        <mxCell id="TVKGhcR1H5X7oImXkqEj-70" value="" style="endArrow=none;html=1;rounded=0;" edge="1" parent="1">
          <mxGeometry width="50" height="50" relative="1" as="geometry">
            <mxPoint x="585" y="624" as="sourcePoint" />
            <mxPoint x="593" y="624" as="targetPoint" />
          </mxGeometry>
        </mxCell>
        <mxCell id="TVKGhcR1H5X7oImXkqEj-71" value="" style="endArrow=none;html=1;rounded=0;" edge="1" parent="1">
          <mxGeometry width="50" height="50" relative="1" as="geometry">
            <mxPoint x="585" y="626" as="sourcePoint" />
            <mxPoint x="593" y="626" as="targetPoint" />
          </mxGeometry>
        </mxCell>
        <mxCell id="TVKGhcR1H5X7oImXkqEj-72" value="" style="endArrow=none;html=1;rounded=0;" edge="1" parent="1">
          <mxGeometry width="50" height="50" relative="1" as="geometry">
            <mxPoint x="593" y="628.5" as="sourcePoint" />
            <mxPoint x="598" y="623" as="targetPoint" />
          </mxGeometry>
        </mxCell>
        <mxCell id="TVKGhcR1H5X7oImXkqEj-73" value="" style="endArrow=none;html=1;rounded=0;" edge="1" parent="1">
          <mxGeometry width="50" height="50" relative="1" as="geometry">
            <mxPoint x="594" y="629.75" as="sourcePoint" />
            <mxPoint x="599" y="624.25" as="targetPoint" />
          </mxGeometry>
        </mxCell>
        <mxCell id="TVKGhcR1H5X7oImXkqEj-74" value="" style="endArrow=none;html=1;rounded=0;" edge="1" parent="1">
          <mxGeometry width="50" height="50" relative="1" as="geometry">
            <mxPoint x="598" y="623.25" as="sourcePoint" />
            <mxPoint x="599" y="624.25" as="targetPoint" />
          </mxGeometry>
        </mxCell>
        <mxCell id="TVKGhcR1H5X7oImXkqEj-75" value="" style="endArrow=none;html=1;rounded=0;" edge="1" parent="1">
          <mxGeometry width="50" height="50" relative="1" as="geometry">
            <mxPoint x="592" y="630.25" as="sourcePoint" />
            <mxPoint x="593" y="628.25" as="targetPoint" />
          </mxGeometry>
        </mxCell>
        <mxCell id="TVKGhcR1H5X7oImXkqEj-76" value="" style="endArrow=none;html=1;rounded=0;" edge="1" parent="1">
          <mxGeometry width="50" height="50" relative="1" as="geometry">
            <mxPoint x="592" y="630.25" as="sourcePoint" />
            <mxPoint x="594" y="630" as="targetPoint" />
          </mxGeometry>
        </mxCell>
        <mxCell id="TVKGhcR1H5X7oImXkqEj-77" value="" style="rounded=0;whiteSpace=wrap;html=1;" vertex="1" parent="1">
          <mxGeometry x="369" y="622" width="12" height="17" as="geometry" />
        </mxCell>
        <mxCell id="TVKGhcR1H5X7oImXkqEj-78" value="" style="endArrow=none;html=1;rounded=0;" edge="1" parent="1">
          <mxGeometry width="50" height="50" relative="1" as="geometry">
            <mxPoint x="371" y="625" as="sourcePoint" />
            <mxPoint x="379" y="625" as="targetPoint" />
          </mxGeometry>
        </mxCell>
        <mxCell id="TVKGhcR1H5X7oImXkqEj-79" value="" style="endArrow=none;html=1;rounded=0;" edge="1" parent="1">
          <mxGeometry width="50" height="50" relative="1" as="geometry">
            <mxPoint x="368" y="627" as="sourcePoint" />
            <mxPoint x="377" y="627" as="targetPoint" />
          </mxGeometry>
        </mxCell>
        <mxCell id="TVKGhcR1H5X7oImXkqEj-80" value="" style="endArrow=none;html=1;rounded=0;" edge="1" parent="1">
          <mxGeometry width="50" height="50" relative="1" as="geometry">
            <mxPoint x="377" y="627" as="sourcePoint" />
            <mxPoint x="381" y="631" as="targetPoint" />
          </mxGeometry>
        </mxCell>
        <mxCell id="TVKGhcR1H5X7oImXkqEj-81" value="" style="endArrow=none;html=1;rounded=0;" edge="1" parent="1">
          <mxGeometry width="50" height="50" relative="1" as="geometry">
            <mxPoint x="368" y="627" as="sourcePoint" />
            <mxPoint x="368" y="640" as="targetPoint" />
          </mxGeometry>
        </mxCell>
        <mxCell id="TVKGhcR1H5X7oImXkqEj-82" value="" style="endArrow=none;html=1;rounded=0;" edge="1" parent="1">
          <mxGeometry width="50" height="50" relative="1" as="geometry">
            <mxPoint x="368" y="640" as="sourcePoint" />
            <mxPoint x="381" y="640" as="targetPoint" />
          </mxGeometry>
        </mxCell>
      </root>
    </mxGraphModel>
  </diagram>
</mxfile>
